<svg width="582" height="998" viewBox="0 0 582 998" fill="none" xmlns="http://www.w3.org/2000/svg">
<path d="M0 915C0 906.333 3.33333 898.667 10 892L403 499L10 106C3.33333 99.3333 0 91.6667 0 83C0 74.3333 3.33333 66.6667 10 60L60 10C66.6667 3.33333 74.3333 0 83 0C91.6667 0 99.3333 3.33333 106 10L572 476C578.667 482.667 582 490.333 582 499C582 507.667 578.667 515.333 572 522L106 988C99.3333 994.667 91.6667 998 83 998C74.3333 998 66.6667 994.667 60 988L10 938C3.33333 931.333 0 923.667 0 915Z" fill="white"/>
</svg>
