<svg width="582" height="998" viewBox="0 0 582 998" fill="none" xmlns="http://www.w3.org/2000/svg">
<path d="M582 83C582 91.6667 578.667 99.3333 572 106L179 499L572 892C578.667 898.667 582 906.333 582 915C582 923.667 578.667 931.333 572 938L522 988C515.333 994.667 507.667 998 499 998C490.333 998 482.667 994.667 476 988L10 522C3.33333 515.333 0 507.667 0 499C0 490.333 3.33333 482.667 10 476L476 10C482.667 3.33333 490.333 0 499 0C507.667 0 515.333 3.33333 522 10L572 60C578.667 66.6667 582 74.3333 582 83Z" fill="white"/>
</svg>
